<?xml version="1.0" encoding="UTF-8"?>
<svg xmlns="http://www.w3.org/2000/svg" xmlns:xlink="http://www.w3.org/1999/xlink" width="176pt" height="138.56pt" viewBox="0 0 176 138.56" version="1.1">
<g>
<g transform="translate(16,99.52)">
<path style="stroke:none;" d="M 41.40625 -25.484375 L 41.40625 -38.953125 L 55.296875 -38.953125 L 55.296875 -25.484375 Z M 16.484375 -25.484375 L 16.484375 -38.953125 L 30.3125 -38.953125 L 30.3125 -25.484375 Z M 41.40625 -49.25 L 41.40625 -61.5625 L 30.3125 -61.5625 L 30.3125 -49.25 L 5.96875 -49.25 L 5.96875 -11.453125 L 16.484375 -11.453125 L 16.484375 -15.1875 L 30.3125 -15.1875 L 30.3125 6.84375 L 41.40625 6.84375 L 41.40625 -15.1875 L 55.296875 -15.1875 L 55.296875 -11.8125 L 66.3125 -11.8125 L 66.3125 -49.25 Z M 41.40625 -49.25 "/>
</g>
<g transform="translate(88,99.52)">
<path style="stroke:none;" d="M 46.734375 -39.53125 C 44.28125 -32.609375 40.890625 -26.78125 36.640625 -21.890625 C 31.828125 -27 28.015625 -32.90625 25.203125 -39.53125 Z M 69.40625 -39.53125 L 69.40625 -49.75 L 39.171875 -49.75 L 45 -51.546875 C 44.28125 -54.578125 42.265625 -59.109375 40.46875 -62.5 L 29.234375 -59.1875 C 30.59375 -56.296875 31.890625 -52.625 32.609375 -49.75 L 2.953125 -49.75 L 2.953125 -39.53125 L 14.328125 -39.53125 C 18.078125 -29.8125 22.6875 -21.53125 28.65625 -14.609375 C 21.390625 -9.28125 12.390625 -5.546875 1.375 -3.09375 C 3.390625 -0.640625 6.546875 4.25 7.703125 6.765625 C 19.078125 3.59375 28.578125 -0.9375 36.4375 -7.125 C 43.84375 -1.15625 52.84375 3.3125 63.9375 6.1875 C 65.515625 3.3125 68.609375 -1.296875 70.984375 -3.59375 C 60.546875 -5.90625 51.84375 -9.71875 44.640625 -14.90625 C 50.546875 -21.59375 55.15625 -29.734375 58.53125 -39.53125 Z M 69.40625 -39.53125 "/>
</g>
</g>
</svg>
